<?xml version="1.0" encoding="utf-8"?>
<!-- Generator: Adobe Illustrator 22.1.0, SVG Export Plug-In . SVG Version: 6.00 Build 0)  -->
<svg version="1.1" id="Warstwa_1" xmlns="http://www.w3.org/2000/svg" xmlns:xlink="http://www.w3.org/1999/xlink" x="0px" y="0px"
	 viewBox="0 0 166.4 182.8" style="enable-background:new 0 0 166.4 182.8;" xml:space="preserve">
<style type="text/css">
	.st0{fill:#EF5BA1;}
	.st1{fill:#333333;}
	.st2{fill:#FFFFFF;}
	.st3{fill:#F598AA;}
</style>
<path class="st0" d="M72.1,86.8C67.9,54,20.2,56.2,5.8,79.5c-14.2,22.9,1.6,56.7,19.8,72.8c4.2,3.7,35.5,30.6,46.3,30.5
	c10.7-1.9,41-25.2,45.7-29.2c18.5-15.7,35.1-49.1,21.3-72.4C125,57.7,76.9,54.1,72.1,86.8z"/>
<g>
	<g>
		<path d="M85.2,19.1c-1.8-4.5-0.5-8,3.8-10.3c2.7-1.5,5-1.1,7.1,1.2c0.3,0.3,0.6,0.7,0.8,1c2.5-1.1,5.2-1.8,7.9-2.3
			c0-0.1,0-0.2-0.1-0.3c-2.6-5.6-7.6-9.5-14.7-8C85.9,1.2,82.2,3,79.1,6c-4.6,4.4-5.7,10.8-2.9,17.3c0.6,1.3,1.3,2.6,2.2,3.7
			c0.1,0.1,0.2,0.2,0.2,0.2c0.7-1.2,1.5-2.5,2.5-3.7C82.5,21.9,83.8,20.5,85.2,19.1z"/>
		<path class="st1" d="M89,8.7c-4.3,2.3-5.5,5.8-3.8,10.3c3.2-3.2,6.9-5.9,11-7.8c0.2-0.1,0.5-0.2,0.7-0.3c-0.3-0.4-0.5-0.7-0.8-1
			C94.1,7.6,91.7,7.3,89,8.7z"/>
		<path d="M164.8,20.4c-2-3.8-4.8-6.8-8.5-8.9c-6.2-3.7-12.2-1.7-16.5,2.7c-0.1,0.1-0.1,0.1-0.1,0.2c0.8,0.5,1.7,0.9,2.5,1.5
			c1.5,1,2.9,2.1,4.3,3.3c0.3-0.2,0.7-0.5,1.1-0.7c2.7-1.4,5-1,7.1,1.3c3.2,3.5,3.3,7.2,0.3,10.8c1,1.9,1.8,3.8,2.5,5.8
			c0.5,1.4,0.9,2.7,1.1,4c0,0,0,0,0,0c1.3-0.7,2.3-1.7,3.3-2.7C166.6,32.5,167.7,26.1,164.8,20.4z"/>
		<path class="st1" d="M154.8,30.6c3-3.6,2.9-7.3-0.3-10.8c-2-2.3-4.4-2.7-7.1-1.3c-0.4,0.2-0.7,0.4-1.1,0.7
			C149.9,22.4,152.6,26.3,154.8,30.6z"/>
		<path class="st2" d="M131.3,35.9c-2.6-0.4-5.1,1.3-5.5,4c-0.4,2.6,1.3,5.1,4,5.6c2.6,0.4,5.1-1.4,5.6-4
			C135.7,38.9,133.9,36.4,131.3,35.9z M133.1,41.5c-0.3,1.8-2.1,3.1-3.9,2.8c-1.8-0.3-3.1-2.1-2.8-3.9c0.1-0.8,0.6-1.5,1.2-2
			c-0.1,0.1-0.1,0.2-0.1,0.4c-0.1,0.6,0.3,1.2,1,1.3c0.6,0.1,1.2-0.3,1.3-1s-0.3-1.2-1-1.3c-0.1,0-0.1,0-0.2,0
			c0.5-0.2,1.1-0.3,1.7-0.2C132.2,37.9,133.4,39.7,133.1,41.5z"/>
		<path class="st2" d="M100,35.9c-0.4,2.6,1.3,5.1,4,5.6c2.6,0.4,5.1-1.4,5.6-4c0.4-2.6-1.4-5.1-4-5.5
			C102.9,31.5,100.5,33.3,100,35.9z M108.2,34.8c1.1,1.5,0.7,3.6-0.8,4.7c-1.5,1.1-3.6,0.7-4.7-0.8c-1.1-1.5-0.7-3.5,0.7-4.6
			c0,0.1-0.1,0.2-0.1,0.3c-0.1,0.6,0.3,1.2,1,1.3c0.6,0.1,1.2-0.3,1.3-1c0.1-0.6-0.3-1.1-0.8-1.3C106.1,33.2,107.4,33.7,108.2,34.8z
			"/>
		<path class="st2" d="M154.8,30.6c-2.2-4.3-4.9-8.2-8.4-11.4c-1.3-1.2-2.7-2.3-4.3-3.3c-0.8-0.5-1.6-1-2.5-1.5
			c-8.4-4.7-18.5-6.4-28-6.3c-2.3,0-4.5,0.2-6.7,0.6c-2.7,0.4-5.4,1.2-7.9,2.3c-0.2,0.1-0.5,0.2-0.7,0.3c-4.1,1.9-7.7,4.7-11,7.8
			c-1.4,1.4-2.8,2.9-4,4.4c-1,1.2-1.8,2.4-2.5,3.7c-6.9,12.3,0.2,26.1,7.7,34.9c9.3,10.8,20.3,13,25.1,13.8
			c4.8,0.8,15.9,2.4,28.3-4.8c10.1-5.9,21.4-16.7,18.8-30.7c-0.2-1.3-0.6-2.6-1.1-4C156.6,34.4,155.8,32.5,154.8,30.6z M110.6,40.5
			c-1.2,4.3-4.5,8.2-9.4,10.8c-2.5,1.3-5.3,1.3-7.9,0.2c-2.9-1.1-5.4-2.9-7.4-5.2c-1.9-2.2-2.4-4.7-1.1-7.3
			c2.7-5.1,6.4-9.3,11.8-11.7c3.6-1.6,7.1-1.3,10.3,1.3C110.2,31.4,111.7,35.5,110.6,40.5z M145,56.4c-2.7,1.5-5.6,2.4-8.7,2.5
			c-2.9,0.1-5.4-0.7-7.4-2.8c-3.8-4-5.5-8.9-5.3-13.3c0.6-5.1,3.3-8.4,7.4-9.9c3.8-1.5,7.2-0.5,10.1,2.2c4.4,4,6.5,9.2,7.3,14.9
			C148.9,52.7,147.6,54.9,145,56.4z"/>
		<path d="M141.2,34.9c-2.9-2.7-6.3-3.6-10.1-2.2c-4.1,1.5-6.8,4.9-7.4,9.9c-0.3,4.5,1.5,9.3,5.3,13.3c2,2.1,4.5,2.9,7.4,2.8
			c3.1-0.1,6-0.9,8.7-2.5c2.5-1.4,3.8-3.6,3.4-6.5C147.6,44.1,145.5,38.9,141.2,34.9z M135.3,41.5c-0.4,2.6-2.9,4.4-5.6,4
			c-2.6-0.4-4.4-2.9-4-5.6c0.4-2.6,2.9-4.4,5.5-4C133.9,36.4,135.7,38.9,135.3,41.5z"/>
		<path d="M130.3,37.6c-0.6-0.1-1.2,0-1.7,0.2c0.1,0,0.1,0,0.2,0c0.6,0.1,1.1,0.7,1,1.3s-0.7,1.1-1.3,1c-0.6-0.1-1.1-0.7-1-1.3
			c0-0.1,0.1-0.3,0.1-0.4c-0.6,0.5-1,1.2-1.2,2c-0.3,1.8,0.9,3.6,2.8,3.9c1.8,0.3,3.6-0.9,3.9-2.8S132.2,37.9,130.3,37.6z"/>
		<path d="M104.8,33.5c0.6,0.2,0.9,0.7,0.8,1.3c-0.1,0.6-0.7,1.1-1.3,1c-0.6-0.1-1.1-0.7-1-1.3c0-0.1,0.1-0.2,0.1-0.3
			c-1.5,1.1-1.8,3.1-0.7,4.6c1.1,1.5,3.2,1.9,4.7,0.8c1.5-1.1,1.9-3.2,0.8-4.7C107.4,33.7,106.1,33.2,104.8,33.5z"/>
		<path d="M106.9,28.6c-3.1-2.6-6.6-2.9-10.3-1.3c-5.4,2.3-9.1,6.5-11.8,11.7c-1.3,2.6-0.8,5.1,1.1,7.3c2,2.3,4.5,4.1,7.4,5.2
			c2.7,1,5.4,1.1,7.9-0.2c4.9-2.6,8.1-6.5,9.4-10.8C111.7,35.5,110.2,31.4,106.9,28.6z M109.5,37.5c-0.4,2.6-2.9,4.4-5.6,4
			c-2.6-0.4-4.4-2.9-4-5.6c0.4-2.6,2.9-4.4,5.5-4C108.2,32.4,110,34.8,109.5,37.5z"/>
	</g>
	<path class="st3" d="M109.8,60.8c0,0-1.3,5.7,2.5,6.9c3.8,1.1,4.7-5.2,4.7-5.2s-2.1,1.1-3.1-3.7c0,0-0.7,1-2.1,1.6
		C110.3,61,109.8,60.8,109.8,60.8z"/>
	<path d="M122,59.5c-0.3-0.3-0.8-0.2-1.1,0.1c-1.1,1.5-2.2,2.2-3.2,2c-1.4-0.2-2.5-1.9-3-2.8c0.5-1.5,0.7-3.5,0.8-4.7
		c1.9-0.1,5.5-1.3,5.9-2.9c0.9-3.6-4.2-2-5.9-1.6c0,0-5.1-4.2-5.6-0.4c-0.3,2.1,2.4,4,4.1,4.7c-0.1,1.1-0.3,3-0.7,4.3l0,0
		c-1.2,1.3-2.3,1.9-3.3,1.8c-2-0.3-3.3-2.9-3.3-2.9c-0.2-0.4-0.6-0.5-1-0.3c-0.4,0.2-0.5,0.6-0.3,1c0.1,0.1,1.7,3.4,4.5,3.7
		c1.3,0.2,2.6-0.3,3.9-1.5c0.7,1.1,2,2.9,3.8,3.1c0.1,0,0.3,0,0.4,0c1.4,0,2.8-0.9,4.2-2.6C122.4,60.3,122.3,59.8,122,59.5z"/>
	<path class="st3" d="M89.5,53.4c-0.3-1.7-2.7-1.5-3.4-0.3c-0.7,1.2,0.2,2.9,1.1,3.7c0.2,0.2,1.9,1.5,2.4,1.5
		c0.5-0.1,2.1-1.3,2.3-1.5c0.9-0.8,1.7-2.6,1-3.7C92.2,51.9,89.7,51.8,89.5,53.4z"/>
	<path class="st3" d="M139.4,61.8c0.2-1.7-2.2-2.1-3.2-1.1c-1,1-0.6,2.8,0.1,3.8c0.2,0.2,1.4,1.9,1.9,2.1c0.6,0,2.3-0.8,2.6-0.9
		c1.1-0.6,2.3-2,1.9-3.3C142.4,61,140,60.2,139.4,61.8z"/>
</g>
<path d="M86,60.6c-7.7-2.1-14.2,5.3-14.9,10.1c-0.7,4.8,5.2,9.8,10,9c4.9-0.8,11.2-9.3,10.3-12.6S90.6,61.9,86,60.6z"/>
<path d="M148.2,85.6c3.1-7.4-3.4-14.8-8-16.1c-4.6-1.3-10.4,3.8-10.2,8.7c0.2,4.9,7.7,12.3,11.1,11.9
	C144.4,89.8,146.3,90,148.2,85.6z"/>
</svg>
